<svg width="55" height="54" viewBox="0 0 55 54" fill="none" xmlns="http://www.w3.org/2000/svg">
<g clip-path="url(#clip0_2645_802)">
<g clip-path="url(#clip1_2645_802)">
<path d="M52.8125 40.5H5.5625V13.5C5.5625 11.6362 7.07366 10.125 8.9375 10.125H49.4375C51.3013 10.125 52.8125 11.6362 52.8125 13.5V40.5Z" fill="#353744"/>
</g>
<g clip-path="url(#clip2_2645_802)">
<path d="M52.8125 40.5H5.5625V42.1875C5.5625 44.0513 7.07366 45.5625 8.9375 45.5625H49.4375C51.3013 45.5625 52.8125 44.0513 52.8125 42.1875V40.5Z" fill="#808080"/>
</g>
<g clip-path="url(#clip3_2645_802)">
<path d="M49.4375 40.5H5.5625V13.5C5.5625 11.6362 7.07366 10.125 8.9375 10.125H46.0625C47.9263 10.125 49.4375 11.6362 49.4375 13.5V40.5Z" fill="#55525B"/>
</g>
<g clip-path="url(#clip4_2645_802)">
<path d="M49.4375 40.5H5.5625V42.1875C5.5625 44.0513 7.07366 45.5625 8.9375 45.5625H46.0625C47.9263 45.5625 49.4375 44.0513 49.4375 42.1875V40.5Z" fill="#DBDEE3"/>
</g>
<g clip-path="url(#clip5_2645_802)">
<path d="M44.7969 13.5H10.2031C9.5045 13.5 8.9375 14.067 8.9375 14.7656V35.8594C8.9375 36.558 9.5045 37.125 10.2031 37.125H44.7969C45.4955 37.125 46.0625 36.558 46.0625 35.8594V14.7656C46.0625 14.067 45.4955 13.5 44.7969 13.5Z" fill="#FBBE18"/>
</g>
<g clip-path="url(#clip6_2645_802)">
<path d="M14 20.25H32.5625C33.4948 20.25 34.25 19.4948 34.25 18.5625C34.25 17.6302 33.4948 16.875 32.5625 16.875H14C13.0677 16.875 12.3125 17.6302 12.3125 18.5625C12.3125 19.4948 13.0677 20.25 14 20.25Z" fill="#F68820"/>
</g>
<g clip-path="url(#clip7_2645_802)">
<path d="M14 27H32.5625C33.4948 27 34.25 26.2448 34.25 25.3125C34.25 24.3802 33.4948 23.625 32.5625 23.625H14C13.0677 23.625 12.3125 24.3802 12.3125 25.3125C12.3125 26.2448 13.0677 27 14 27Z" fill="#F68820"/>
</g>
<g clip-path="url(#clip8_2645_802)">
<path d="M14 33.75H32.5625C33.4948 33.75 34.25 32.9948 34.25 32.0625C34.25 31.1302 33.4948 30.375 32.5625 30.375H14C13.0677 30.375 12.3125 31.1302 12.3125 32.0625C12.3125 32.9948 13.0677 33.75 14 33.75Z" fill="#F68820"/>
</g>
<g clip-path="url(#clip9_2645_802)">
<path d="M35.5156 48.9375H32.1406V45.5625H35.5156V48.9375Z" fill="#808080"/>
</g>
<g clip-path="url(#clip10_2645_802)">
<path d="M24.125 45.5625H32.1406V48.9375H24.125V45.5625Z" fill="#B3B4B6"/>
</g>
<g clip-path="url(#clip11_2645_802)">
<path d="M38.8906 48.9375H17.7969C15.933 48.9375 14.4219 50.4487 14.4219 52.3125H42.2656C42.2656 50.4487 40.7545 48.9375 38.8906 48.9375Z" fill="#DBDEE3"/>
</g>
<g clip-path="url(#clip12_2645_802)">
<path d="M38.8906 48.9375H35.5156C33.6518 48.9375 32.1406 50.4487 32.1406 52.3125H42.2656C42.2656 50.4487 40.7545 48.9375 38.8906 48.9375Z" fill="#808080"/>
</g>
<g clip-path="url(#clip13_2645_802)">
<path d="M14.8438 1.6875H12.3125C6.72097 1.6875 2.1875 6.22097 2.1875 11.8125C2.1875 17.404 6.72097 21.9375 12.3125 21.9375H14.8438C20.4353 21.9375 24.9688 17.404 24.9688 11.8125C24.9688 6.22097 20.4353 1.6875 14.8438 1.6875Z" fill="#5C76B2"/>
</g>
<g clip-path="url(#clip14_2645_802)">
<path d="M12.3125 21.9375C17.9044 21.9375 22.4375 17.4044 22.4375 11.8125C22.4375 6.22062 17.9044 1.6875 12.3125 1.6875C6.72062 1.6875 2.1875 6.22062 2.1875 11.8125C2.1875 17.4044 6.72062 21.9375 12.3125 21.9375Z" fill="#6FA4D8"/>
</g>
<g clip-path="url(#clip15_2645_802)">
<path d="M12.3125 20.25C16.9724 20.25 20.75 16.4724 20.75 11.8125C20.75 7.1526 16.9724 3.375 12.3125 3.375C7.6526 3.375 3.875 7.1526 3.875 11.8125C3.875 16.4724 7.6526 20.25 12.3125 20.25Z" fill="#55525B"/>
</g>
<g clip-path="url(#clip16_2645_802)">
<path d="M12.3125 12.2344C12.0796 12.2344 11.8906 12.0454 11.8906 11.8125V5.0625C11.8906 4.82963 12.0796 4.64062 12.3125 4.64062C12.5454 4.64062 12.7344 4.82963 12.7344 5.0625V11.8125C12.7344 12.0454 12.5454 12.2344 12.3125 12.2344Z" fill="#6FA4D8"/>
</g>
<g clip-path="url(#clip17_2645_802)">
<path d="M8.73263 15.8138C8.62463 15.8138 8.51663 15.7724 8.43395 15.6906C8.26941 15.5261 8.26941 15.2586 8.43395 15.0941L12.0131 11.514C12.1777 11.3495 12.4451 11.3495 12.6097 11.514C12.7742 11.6786 12.7742 11.946 12.6097 12.1106L9.03048 15.6906C8.94863 15.7724 8.84063 15.8138 8.73263 15.8138Z" fill="#6FA4D8"/>
</g>
<g clip-path="url(#clip18_2645_802)">
<path d="M12.3125 13.5C13.2445 13.5 14 12.7445 14 11.8125C14 10.8805 13.2445 10.125 12.3125 10.125C11.3805 10.125 10.625 10.8805 10.625 11.8125C10.625 12.7445 11.3805 13.5 12.3125 13.5Z" fill="#F68820"/>
</g>
<g clip-path="url(#clip19_2645_802)">
<path d="M12.3125 12.6562C12.7785 12.6562 13.1562 12.2785 13.1562 11.8125C13.1562 11.3465 12.7785 10.9688 12.3125 10.9688C11.8465 10.9688 11.4688 11.3465 11.4688 11.8125C11.4688 12.2785 11.8465 12.6562 12.3125 12.6562Z" fill="#DBDEE3"/>
</g>
<g clip-path="url(#clip20_2645_802)">
<path d="M6.40625 12.2344H5.5625C5.32963 12.2344 5.14062 12.0454 5.14062 11.8125C5.14062 11.5796 5.32963 11.3906 5.5625 11.3906H6.40625C6.63912 11.3906 6.82812 11.5796 6.82812 11.8125C6.82812 12.0454 6.63912 12.2344 6.40625 12.2344Z" fill="#F68820"/>
</g>
<g clip-path="url(#clip21_2645_802)">
<path d="M12.3125 18.9844C12.0796 18.9844 11.8906 18.7954 11.8906 18.5625V17.7188C11.8906 17.4859 12.0796 17.2969 12.3125 17.2969C12.5454 17.2969 12.7344 17.4859 12.7344 17.7188V18.5625C12.7344 18.7954 12.5454 18.9844 12.3125 18.9844Z" fill="#F68820"/>
</g>
<g clip-path="url(#clip22_2645_802)">
<path d="M19.0625 12.2344H18.2188C17.9859 12.2344 17.7969 12.0454 17.7969 11.8125C17.7969 11.5796 17.9859 11.3906 18.2188 11.3906H19.0625C19.2954 11.3906 19.4844 11.5796 19.4844 11.8125C19.4844 12.0454 19.2954 12.2344 19.0625 12.2344Z" fill="#F68820"/>
</g>
<g clip-path="url(#clip23_2645_802)">
<path d="M40.1562 33.75C39.2239 33.75 38.4688 32.9948 38.4688 32.0625C38.4688 31.1302 39.2239 30.375 40.1562 30.375C41.0886 30.375 41.8438 31.1302 41.8438 32.0625C41.8438 32.9948 41.0886 33.75 40.1562 33.75Z" fill="#F68820"/>
</g>
<g clip-path="url(#clip24_2645_802)">
<path d="M39.5237 17.5081L40.1565 18.1409L42.055 16.2425C42.4043 15.8931 42.9713 15.8931 43.3206 16.2425C43.6699 16.5918 43.6699 17.1588 43.3206 17.5081L40.7893 20.0393C40.44 20.3886 39.873 20.3886 39.5237 20.0393L38.2581 18.7737C37.9088 18.4244 37.9088 17.8574 38.2581 17.5081C38.6074 17.1588 39.1744 17.1588 39.5237 17.5081Z" fill="#5C76B2"/>
</g>
<g clip-path="url(#clip25_2645_802)">
<path d="M39.5237 24.2581L40.1565 24.8909L42.055 22.9925C42.4043 22.6431 42.9713 22.6431 43.3206 22.9925C43.6699 23.3418 43.6699 23.9088 43.3206 24.2581L40.7893 26.7893C40.44 27.1386 39.873 27.1386 39.5237 26.7893L38.2581 25.5237C37.9088 25.1744 37.9088 24.6074 38.2581 24.2581C38.6074 23.9088 39.1744 23.9088 39.5237 24.2581Z" fill="#5C76B2"/>
</g>
</g>
<defs>
<clipPath id="clip0_2645_802">
<rect width="50.625" height="50.625" fill="white" transform="translate(2.1875 1.6875)"/>
</clipPath>
<clipPath id="clip1_2645_802">
<rect width="47.25" height="30.375" fill="white" transform="translate(5.5625 10.125)"/>
</clipPath>
<clipPath id="clip2_2645_802">
<rect width="47.25" height="5.0625" fill="white" transform="translate(5.5625 40.5)"/>
</clipPath>
<clipPath id="clip3_2645_802">
<rect width="43.875" height="30.375" fill="white" transform="translate(5.5625 10.125)"/>
</clipPath>
<clipPath id="clip4_2645_802">
<rect width="43.875" height="5.0625" fill="white" transform="translate(5.5625 40.5)"/>
</clipPath>
<clipPath id="clip5_2645_802">
<rect width="37.125" height="23.625" fill="white" transform="translate(8.9375 13.5)"/>
</clipPath>
<clipPath id="clip6_2645_802">
<rect width="21.9375" height="3.375" fill="white" transform="translate(12.3125 16.875)"/>
</clipPath>
<clipPath id="clip7_2645_802">
<rect width="21.9375" height="3.375" fill="white" transform="translate(12.3125 23.625)"/>
</clipPath>
<clipPath id="clip8_2645_802">
<rect width="21.9375" height="3.375" fill="white" transform="translate(12.3125 30.375)"/>
</clipPath>
<clipPath id="clip9_2645_802">
<rect width="3.375" height="3.375" fill="white" transform="translate(32.1406 45.5625)"/>
</clipPath>
<clipPath id="clip10_2645_802">
<rect width="8.01562" height="3.375" fill="white" transform="translate(24.125 45.5625)"/>
</clipPath>
<clipPath id="clip11_2645_802">
<rect width="27.8438" height="3.375" fill="white" transform="translate(14.4219 48.9375)"/>
</clipPath>
<clipPath id="clip12_2645_802">
<rect width="10.125" height="3.375" fill="white" transform="translate(32.1406 48.9375)"/>
</clipPath>
<clipPath id="clip13_2645_802">
<rect width="22.7812" height="20.25" fill="white" transform="translate(2.1875 1.6875)"/>
</clipPath>
<clipPath id="clip14_2645_802">
<rect width="20.25" height="20.25" fill="white" transform="translate(2.1875 1.6875)"/>
</clipPath>
<clipPath id="clip15_2645_802">
<rect width="16.875" height="16.875" fill="white" transform="translate(3.875 3.375)"/>
</clipPath>
<clipPath id="clip16_2645_802">
<rect width="0.84375" height="7.59375" fill="white" transform="translate(11.8906 4.64062)"/>
</clipPath>
<clipPath id="clip17_2645_802">
<rect width="4.42252" height="4.42315" fill="white" transform="translate(8.31055 11.3906)"/>
</clipPath>
<clipPath id="clip18_2645_802">
<rect width="3.375" height="3.375" fill="white" transform="translate(10.625 10.125)"/>
</clipPath>
<clipPath id="clip19_2645_802">
<rect width="1.6875" height="1.6875" fill="white" transform="translate(11.4688 10.9688)"/>
</clipPath>
<clipPath id="clip20_2645_802">
<rect width="1.6875" height="0.84375" fill="white" transform="translate(5.14062 11.3906)"/>
</clipPath>
<clipPath id="clip21_2645_802">
<rect width="0.84375" height="1.6875" fill="white" transform="translate(11.8906 17.2969)"/>
</clipPath>
<clipPath id="clip22_2645_802">
<rect width="1.6875" height="0.84375" fill="white" transform="translate(17.7969 11.3906)"/>
</clipPath>
<clipPath id="clip23_2645_802">
<rect width="3.375" height="3.375" fill="white" transform="translate(38.4688 30.375)"/>
</clipPath>
<clipPath id="clip24_2645_802">
<rect width="5.58648" height="4.32084" fill="white" transform="translate(37.9961 15.9805)"/>
</clipPath>
<clipPath id="clip25_2645_802">
<rect width="5.58648" height="4.32085" fill="white" transform="translate(37.9961 22.7305)"/>
</clipPath>
</defs>
</svg>
