<svg width="55" height="54" viewBox="0 0 55 54" fill="none" xmlns="http://www.w3.org/2000/svg">
<g clip-path="url(#clip0_2645_944)">
<g clip-path="url(#clip1_2645_944)">
<path d="M21.332 37.9688C19.4682 37.9688 17.957 36.4576 17.957 34.5938V31.2188C17.957 29.3549 19.4682 27.8438 21.332 27.8438V37.9688Z" fill="#6FA4D8"/>
</g>
<g clip-path="url(#clip2_2645_944)">
<path d="M34.832 37.9688C36.6959 37.9688 38.207 36.4576 38.207 34.5938V31.2188C38.207 29.3549 36.6959 27.8438 34.832 27.8438V37.9688Z" fill="#5C76B2"/>
</g>
<g clip-path="url(#clip3_2645_944)">
<path d="M34.832 12.6562H21.332C19.4682 12.6562 17.957 14.1674 17.957 16.0312V24.4688C17.957 26.3326 19.4682 27.8438 21.332 27.8438V37.9688C21.332 40.7649 23.5983 43.0312 26.3945 43.0312H29.7695C32.5657 43.0312 34.832 40.7649 34.832 37.9688V27.8438C36.6959 27.8438 38.207 26.3326 38.207 24.4688V16.0312C38.207 14.1674 36.6959 12.6562 34.832 12.6562Z" fill="#F68820"/>
</g>
<g clip-path="url(#clip4_2645_944)">
<path d="M24.707 12.6562H16.2695C15.3372 12.6562 14.582 11.9011 14.582 10.9688V10.125C14.582 9.65925 14.204 9.28125 13.7383 9.28125C13.2725 9.28125 12.8945 9.65925 12.8945 10.125V12.6562C12.8945 14.5201 14.4057 16.0312 16.2695 16.0312H23.0195C25.8157 16.0312 28.082 18.2976 28.082 21.0938V16.0312C28.082 14.1674 26.5709 12.6562 24.707 12.6562Z" fill="#6FA4D8"/>
</g>
<g clip-path="url(#clip5_2645_944)">
<path d="M31.457 12.6562H39.8945C40.8269 12.6562 41.582 11.9011 41.582 10.9688V10.125C41.582 9.65925 41.96 9.28125 42.4258 9.28125C42.8915 9.28125 43.2695 9.65925 43.2695 10.125V12.6562C43.2695 14.5201 41.7584 16.0312 39.8945 16.0312H33.1445C30.3483 16.0312 28.082 18.2976 28.082 21.0938V16.0312C28.082 14.1674 29.5932 12.6562 31.457 12.6562Z" fill="#5C76B2"/>
</g>
<g clip-path="url(#clip6_2645_944)">
<g clip-path="url(#clip7_2645_944)">
<path d="M41.582 49.7812V53.1563H12.8945V49.7812H41.582Z" fill="#F68820"/>
</g>
<g clip-path="url(#clip8_2645_944)">
<path d="M41.582 43.0312V46.4063H12.8945V43.0312H41.582Z" fill="#FBD301"/>
</g>
<g clip-path="url(#clip9_2645_944)">
<path d="M12.8945 46.4062H41.582V49.7812H12.8945V46.4062Z" fill="#FBBE18"/>
</g>
<g clip-path="url(#clip10_2645_944)">
<path d="M12.8952 43.0312L3.52452 47.7166C3.21318 47.8718 3.21318 48.3157 3.52452 48.4709L12.8952 53.1562V43.0312Z" fill="#DB9E68"/>
</g>
<g clip-path="url(#clip11_2645_944)">
<path d="M12.8946 43.0312L3.52389 47.7166C3.36864 47.7942 3.29102 47.9436 3.29102 48.0937H12.8946V43.0312Z" fill="#EEC78E"/>
</g>
<g clip-path="url(#clip12_2645_944)">
<path d="M4.45771 47.25L3.52452 47.7166C3.21318 47.8718 3.21318 48.3157 3.52452 48.4709L4.45771 48.9375V47.25Z" fill="#353744"/>
</g>
<g clip-path="url(#clip13_2645_944)">
<path d="M44.957 43.0312V53.1562H41.582V43.0312H44.957Z" fill="#B3B4B6"/>
</g>
<g clip-path="url(#clip14_2645_944)">
<path d="M44.957 43.0312V48.0937H41.582V43.0312H44.957Z" fill="#DBDEE3"/>
</g>
<g clip-path="url(#clip15_2645_944)">
<path d="M51.707 50.625V45.5625C51.707 44.1644 50.5739 43.0312 49.1758 43.0312H44.957V53.1562H48.332H49.1758C50.5739 53.1562 51.707 52.0231 51.707 50.625Z" fill="#353744"/>
</g>
<g clip-path="url(#clip16_2645_944)">
<path d="M51.707 48.0937V45.5625C51.707 44.1644 50.5739 43.0312 49.1758 43.0312H44.957V48.0937H51.707Z" fill="#55525B"/>
</g>
</g>
<g clip-path="url(#clip17_2645_944)">
<path d="M46.6445 5.90625H9.51953C8.58719 5.90625 7.83203 5.15109 7.83203 4.21875C7.83203 3.28641 8.58719 2.53125 9.51953 2.53125H46.6445C47.5769 2.53125 48.332 3.28641 48.332 4.21875C48.332 5.15109 47.5769 5.90625 46.6445 5.90625Z" fill="#353744"/>
</g>
<g clip-path="url(#clip18_2645_944)">
<path d="M29.7695 4.21875C29.7695 3.28641 29.0144 2.53125 28.082 2.53125H9.51953C8.58719 2.53125 7.83203 3.28641 7.83203 4.21875C7.83203 5.15025 8.58719 5.90625 9.51953 5.90625H28.082C29.0144 5.90625 29.7695 5.15025 29.7695 4.21875Z" fill="#55525B"/>
</g>
<g clip-path="url(#clip19_2645_944)">
<path d="M38.6289 12.6562H17.5352C17.0694 12.6562 16.6914 12.2783 16.6914 11.8125V5.90625H39.4727V11.8125C39.4727 12.2783 39.0947 12.6562 38.6289 12.6562Z" fill="#353744"/>
</g>
<g clip-path="url(#clip20_2645_944)">
<path d="M28.082 12.6562H17.5352C17.0694 12.6562 16.6914 12.2782 16.6914 11.8125V9.28125H26.3945C27.3269 9.28125 28.082 10.0364 28.082 10.9688V12.6562Z" fill="#55525B"/>
</g>
<g clip-path="url(#clip21_2645_944)">
<path d="M43.2695 2.53125H44.957V12.6562H43.2695V2.53125Z" fill="#F68820"/>
</g>
<g clip-path="url(#clip22_2645_944)">
<path d="M26.3945 2.53125H44.957C44.957 1.59891 44.2019 0.84375 43.2695 0.84375H28.082C27.1497 0.84375 26.3945 1.59891 26.3945 2.53125Z" fill="#FBBE18"/>
</g>
<g clip-path="url(#clip23_2645_944)">
<path d="M44.1133 14.3438C45.0453 14.3438 45.8008 13.5882 45.8008 12.6562C45.8008 11.7243 45.0453 10.9688 44.1133 10.9688C43.1813 10.9688 42.4258 11.7243 42.4258 12.6562C42.4258 13.5882 43.1813 14.3438 44.1133 14.3438Z" fill="#FBBE18"/>
</g>
<g clip-path="url(#clip24_2645_944)">
<path d="M42.4258 12.6562H45.8008V14.3438H42.4258V12.6562Z" fill="#B3B4B6"/>
</g>
<g clip-path="url(#clip25_2645_944)">
<path d="M42.4258 12.6562H44.1133V14.3438H42.4258V12.6562Z" fill="#DBDEE3"/>
</g>
<g clip-path="url(#clip26_2645_944)">
<path d="M44.1133 21.0938H42.4258C41.96 21.0938 41.582 20.7158 41.582 20.25V15.1875C41.582 14.7218 41.96 14.3438 42.4258 14.3438H44.1133V21.0938Z" fill="#FBBE18"/>
</g>
<g clip-path="url(#clip27_2645_944)">
<path d="M44.1133 21.0938H45.8008C46.2665 21.0938 46.6445 20.7158 46.6445 20.25V15.1875C46.6445 14.7218 46.2665 14.3438 45.8008 14.3438H44.1133V21.0938Z" fill="#F68820"/>
</g>
<g clip-path="url(#clip28_2645_944)">
<path d="M43.2695 21.0938V15.6094C43.2695 15.3765 43.0805 15.1875 42.8477 15.1875C42.6148 15.1875 42.4258 15.3765 42.4258 15.6094V21.0938H43.2695Z" fill="#F68820"/>
</g>
<g clip-path="url(#clip29_2645_944)">
<path d="M45.8008 21.0938V18.1406C45.8008 17.9078 45.6118 17.7188 45.3789 17.7188C45.146 17.7188 44.957 17.9078 44.957 18.1406V21.0938H45.8008Z" fill="#FBBE18"/>
</g>
<g clip-path="url(#clip30_2645_944)">
<path d="M23.0195 26.1562C25.8155 26.1562 28.082 23.8897 28.082 21.0938C28.082 18.2978 25.8155 16.0312 23.0195 16.0312C20.2236 16.0312 17.957 18.2978 17.957 21.0938C17.957 23.8897 20.2236 26.1562 23.0195 26.1562Z" fill="#DBDEE3"/>
</g>
<g clip-path="url(#clip31_2645_944)">
<path d="M23.0195 26.1562C25.8155 26.1562 28.082 23.8897 28.082 21.0938C28.082 18.2978 25.8155 16.0312 23.0195 16.0312C20.2236 16.0312 17.957 18.2978 17.957 21.0938C17.957 23.8897 20.2236 26.1562 23.0195 26.1562Z" fill="#DBDEE3"/>
</g>
<g clip-path="url(#clip32_2645_944)">
<path d="M23.0195 22.7812C23.9515 22.7812 24.707 22.0257 24.707 21.0938C24.707 20.1618 23.9515 19.4062 23.0195 19.4062C22.0876 19.4062 21.332 20.1618 21.332 21.0938C21.332 22.0257 22.0876 22.7812 23.0195 22.7812Z" fill="#55525B"/>
</g>
<g clip-path="url(#clip33_2645_944)">
<path d="M33.1445 26.1562C35.9405 26.1562 38.207 23.8897 38.207 21.0938C38.207 18.2978 35.9405 16.0312 33.1445 16.0312C30.3486 16.0312 28.082 18.2978 28.082 21.0938C28.082 23.8897 30.3486 26.1562 33.1445 26.1562Z" fill="#DBDEE3"/>
</g>
<g clip-path="url(#clip34_2645_944)">
<path d="M33.1445 22.7812C34.0765 22.7812 34.832 22.0257 34.832 21.0938C34.832 20.1618 34.0765 19.4062 33.1445 19.4062C32.2126 19.4062 31.457 20.1618 31.457 21.0938C31.457 22.0257 32.2126 22.7812 33.1445 22.7812Z" fill="#55525B"/>
</g>
<g clip-path="url(#clip35_2645_944)">
<path d="M28.0834 21.0938C29.1297 21.0938 29.8756 22.1088 29.5634 23.1069L28.8884 25.2661C28.642 26.0558 27.524 26.0558 27.2776 25.2661L26.6026 23.1069C26.2913 22.1088 27.0372 21.0938 28.0834 21.0938Z" fill="#55525B"/>
</g>
<g clip-path="url(#clip36_2645_944)">
<path d="M25.5508 29.5312C24.6184 29.5312 23.8633 28.7761 23.8633 27.8438H27.2383C27.2383 28.7761 26.4831 29.5312 25.5508 29.5312Z" fill="#FBBE18"/>
</g>
<g clip-path="url(#clip37_2645_944)">
<path d="M30.6133 29.5312C29.6809 29.5312 28.9258 28.7761 28.9258 27.8438H32.3008C32.3008 28.7761 31.5456 29.5312 30.6133 29.5312Z" fill="#FBBE18"/>
</g>
<g clip-path="url(#clip38_2645_944)">
<path d="M25.5508 36.2812C24.6184 36.2812 23.8633 35.5261 23.8633 34.5938H27.2383C27.2383 35.5261 26.4831 36.2812 25.5508 36.2812Z" fill="#FBBE18"/>
</g>
<g clip-path="url(#clip39_2645_944)">
<path d="M30.6133 36.2812C29.6809 36.2812 28.9258 35.5261 28.9258 34.5938H32.3008C32.3008 35.5261 31.5456 36.2812 30.6133 36.2812Z" fill="#FBBE18"/>
</g>
<g clip-path="url(#clip40_2645_944)">
<path d="M28.082 32.9062C27.1497 32.9062 26.3945 32.1511 26.3945 31.2188H29.7695C29.7695 32.1511 29.0144 32.9062 28.082 32.9062Z" fill="#FBBE18"/>
</g>
<g clip-path="url(#clip41_2645_944)">
<path d="M28.082 39.6562C27.1497 39.6562 26.3945 38.9011 26.3945 37.9688H29.7695C29.7695 38.9011 29.0144 39.6562 28.082 39.6562Z" fill="#FBBE18"/>
</g>
<g clip-path="url(#clip42_2645_944)">
<path d="M22.5977 44.7188C23.0634 44.7188 23.4414 44.3407 23.4414 43.875V42.1875C23.4414 41.7218 23.0634 41.3438 22.5977 41.3438C22.1319 41.3438 21.7539 41.7218 21.7539 42.1875V43.875C21.7539 44.3407 22.1319 44.7188 22.5977 44.7188Z" fill="#6FA4D8"/>
</g>
<g clip-path="url(#clip43_2645_944)">
<path d="M24.2852 44.7188C24.7509 44.7188 25.1289 44.3407 25.1289 43.875V42.1875C25.1289 41.7218 24.7509 41.3438 24.2852 41.3438C23.8194 41.3438 23.4414 41.7218 23.4414 42.1875V43.875C23.4414 44.3407 23.8194 44.7188 24.2852 44.7188Z" fill="#6FA4D8"/>
</g>
<g clip-path="url(#clip44_2645_944)">
<path d="M25.9727 44.7188C26.4384 44.7188 26.8164 44.3407 26.8164 43.875V42.1875C26.8164 41.7218 26.4384 41.3438 25.9727 41.3438C25.5069 41.3438 25.1289 41.7218 25.1289 42.1875V43.875C25.1289 44.3407 25.5069 44.7188 25.9727 44.7188Z" fill="#6FA4D8"/>
</g>
<g clip-path="url(#clip45_2645_944)">
<path d="M30.1914 44.7188C30.6572 44.7188 31.0352 44.3407 31.0352 43.875V42.1875C31.0352 41.7218 30.6572 41.3438 30.1914 41.3438C29.7257 41.3438 29.3477 41.7218 29.3477 42.1875V43.875C29.3477 44.3407 29.7257 44.7188 30.1914 44.7188Z" fill="#6FA4D8"/>
</g>
<g clip-path="url(#clip46_2645_944)">
<path d="M31.8789 44.7188C32.3447 44.7188 32.7227 44.3407 32.7227 43.875V42.1875C32.7227 41.7218 32.3447 41.3438 31.8789 41.3438C31.4132 41.3438 31.0352 41.7218 31.0352 42.1875V43.875C31.0352 44.3407 31.4132 44.7188 31.8789 44.7188Z" fill="#6FA4D8"/>
</g>
<g clip-path="url(#clip47_2645_944)">
<path d="M33.5664 44.7188C34.0322 44.7188 34.4102 44.3407 34.4102 43.875V42.1875C34.4102 41.7218 34.0322 41.3438 33.5664 41.3438C33.1007 41.3438 32.7227 41.7218 32.7227 42.1875V43.875C32.7227 44.3407 33.1007 44.7188 33.5664 44.7188Z" fill="#6FA4D8"/>
</g>
</g>
<defs>
<clipPath id="clip0_2645_944">
<rect width="48.4167" height="52.3125" fill="white" transform="translate(3.29102 0.84375)"/>
</clipPath>
<clipPath id="clip1_2645_944">
<rect width="3.375" height="10.125" fill="white" transform="translate(17.957 27.8438)"/>
</clipPath>
<clipPath id="clip2_2645_944">
<rect width="3.375" height="10.125" fill="white" transform="translate(34.832 27.8438)"/>
</clipPath>
<clipPath id="clip3_2645_944">
<rect width="20.25" height="30.375" fill="white" transform="translate(17.957 12.6562)"/>
</clipPath>
<clipPath id="clip4_2645_944">
<rect width="15.1875" height="11.8125" fill="white" transform="translate(12.8945 9.28125)"/>
</clipPath>
<clipPath id="clip5_2645_944">
<rect width="15.1875" height="11.8125" fill="white" transform="translate(28.082 9.28125)"/>
</clipPath>
<clipPath id="clip6_2645_944">
<rect width="48.4167" height="10.125" fill="white" transform="translate(3.29102 43.0312)"/>
</clipPath>
<clipPath id="clip7_2645_944">
<rect width="28.6875" height="3.37501" fill="white" transform="translate(12.8945 49.7812)"/>
</clipPath>
<clipPath id="clip8_2645_944">
<rect width="28.6875" height="3.37501" fill="white" transform="translate(12.8945 43.0312)"/>
</clipPath>
<clipPath id="clip9_2645_944">
<rect width="28.6875" height="3.375" fill="white" transform="translate(12.8945 46.4062)"/>
</clipPath>
<clipPath id="clip10_2645_944">
<rect width="9.60419" height="10.125" fill="white" transform="translate(3.29102 43.0312)"/>
</clipPath>
<clipPath id="clip11_2645_944">
<rect width="9.60356" height="5.0625" fill="white" transform="translate(3.29102 43.0312)"/>
</clipPath>
<clipPath id="clip12_2645_944">
<rect width="1.16669" height="1.6875" fill="white" transform="translate(3.29102 47.25)"/>
</clipPath>
<clipPath id="clip13_2645_944">
<rect width="3.375" height="10.125" fill="white" transform="translate(41.582 43.0312)"/>
</clipPath>
<clipPath id="clip14_2645_944">
<rect width="3.375" height="5.0625" fill="white" transform="translate(41.582 43.0312)"/>
</clipPath>
<clipPath id="clip15_2645_944">
<rect width="6.75" height="10.125" fill="white" transform="translate(44.957 43.0312)"/>
</clipPath>
<clipPath id="clip16_2645_944">
<rect width="6.75" height="5.0625" fill="white" transform="translate(44.957 43.0312)"/>
</clipPath>
<clipPath id="clip17_2645_944">
<rect width="40.5" height="3.375" fill="white" transform="translate(7.83203 2.53125)"/>
</clipPath>
<clipPath id="clip18_2645_944">
<rect width="21.9375" height="3.375" fill="white" transform="translate(7.83203 2.53125)"/>
</clipPath>
<clipPath id="clip19_2645_944">
<rect width="22.7813" height="6.75" fill="white" transform="translate(16.6914 5.90625)"/>
</clipPath>
<clipPath id="clip20_2645_944">
<rect width="11.3906" height="3.375" fill="white" transform="translate(16.6914 9.28125)"/>
</clipPath>
<clipPath id="clip21_2645_944">
<rect width="1.6875" height="10.125" fill="white" transform="translate(43.2695 2.53125)"/>
</clipPath>
<clipPath id="clip22_2645_944">
<rect width="18.5625" height="1.6875" fill="white" transform="translate(26.3945 0.84375)"/>
</clipPath>
<clipPath id="clip23_2645_944">
<rect width="3.375" height="3.375" fill="white" transform="translate(42.4258 10.9688)"/>
</clipPath>
<clipPath id="clip24_2645_944">
<rect width="3.375" height="1.6875" fill="white" transform="translate(42.4258 12.6562)"/>
</clipPath>
<clipPath id="clip25_2645_944">
<rect width="1.6875" height="1.6875" fill="white" transform="translate(42.4258 12.6562)"/>
</clipPath>
<clipPath id="clip26_2645_944">
<rect width="2.53125" height="6.75" fill="white" transform="translate(41.582 14.3438)"/>
</clipPath>
<clipPath id="clip27_2645_944">
<rect width="2.53125" height="6.75" fill="white" transform="translate(44.1133 14.3438)"/>
</clipPath>
<clipPath id="clip28_2645_944">
<rect width="0.84375" height="5.90625" fill="white" transform="translate(42.4258 15.1875)"/>
</clipPath>
<clipPath id="clip29_2645_944">
<rect width="0.843742" height="3.375" fill="white" transform="translate(44.957 17.7188)"/>
</clipPath>
<clipPath id="clip30_2645_944">
<rect width="10.125" height="10.125" fill="white" transform="translate(17.957 16.0312)"/>
</clipPath>
<clipPath id="clip31_2645_944">
<rect width="10.125" height="10.125" fill="white" transform="translate(17.957 16.0312)"/>
</clipPath>
<clipPath id="clip32_2645_944">
<rect width="3.375" height="3.375" fill="white" transform="translate(21.332 19.4062)"/>
</clipPath>
<clipPath id="clip33_2645_944">
<rect width="10.125" height="10.125" fill="white" transform="translate(28.082 16.0312)"/>
</clipPath>
<clipPath id="clip34_2645_944">
<rect width="3.375" height="3.375" fill="white" transform="translate(31.457 19.4062)"/>
</clipPath>
<clipPath id="clip35_2645_944">
<rect width="3.10385" height="4.76466" fill="white" transform="translate(26.5312 21.0938)"/>
</clipPath>
<clipPath id="clip36_2645_944">
<rect width="3.375" height="1.6875" fill="white" transform="translate(23.8633 27.8438)"/>
</clipPath>
<clipPath id="clip37_2645_944">
<rect width="3.375" height="1.6875" fill="white" transform="translate(28.9258 27.8438)"/>
</clipPath>
<clipPath id="clip38_2645_944">
<rect width="3.375" height="1.6875" fill="white" transform="translate(23.8633 34.5938)"/>
</clipPath>
<clipPath id="clip39_2645_944">
<rect width="3.375" height="1.6875" fill="white" transform="translate(28.9258 34.5938)"/>
</clipPath>
<clipPath id="clip40_2645_944">
<rect width="3.37501" height="1.6875" fill="white" transform="translate(26.3945 31.2188)"/>
</clipPath>
<clipPath id="clip41_2645_944">
<rect width="3.37501" height="1.6875" fill="white" transform="translate(26.3945 37.9688)"/>
</clipPath>
<clipPath id="clip42_2645_944">
<rect width="1.6875" height="3.375" fill="white" transform="translate(21.7539 41.3438)"/>
</clipPath>
<clipPath id="clip43_2645_944">
<rect width="1.6875" height="3.375" fill="white" transform="translate(23.4414 41.3438)"/>
</clipPath>
<clipPath id="clip44_2645_944">
<rect width="1.6875" height="3.375" fill="white" transform="translate(25.1289 41.3438)"/>
</clipPath>
<clipPath id="clip45_2645_944">
<rect width="1.6875" height="3.375" fill="white" transform="translate(29.3477 41.3438)"/>
</clipPath>
<clipPath id="clip46_2645_944">
<rect width="1.6875" height="3.375" fill="white" transform="translate(31.0352 41.3438)"/>
</clipPath>
<clipPath id="clip47_2645_944">
<rect width="1.6875" height="3.375" fill="white" transform="translate(32.7227 41.3438)"/>
</clipPath>
</defs>
</svg>
