<svg width="37" height="54" viewBox="0 0 37 54" fill="none" xmlns="http://www.w3.org/2000/svg">
<g clip-path="url(#clip0_2645_903)">
<g clip-path="url(#clip1_2645_903)">
<path d="M23.5631 32.9062V24.4688H13.4381V32.9062L1.28807 49.1063C0.0367852 50.7752 1.22732 53.1562 3.31307 53.1562H33.6881C35.7738 53.1562 36.9643 50.7752 35.7131 49.1063L23.5631 32.9062Z" fill="#6FA4D8"/>
</g>
<g clip-path="url(#clip2_2645_903)">
<path d="M35.7125 49.1063L23.5625 32.9062V24.4688H18.5H13.4375V26.5781H17.2344C17.933 26.5781 18.5 27.1451 18.5 27.8438V32.9062L25.25 53.1562H33.6875C35.7733 53.1562 36.9638 50.7752 35.7125 49.1063Z" fill="#5C76B2"/>
</g>
<g clip-path="url(#clip3_2645_903)">
<path d="M23.5625 24.4688H13.4375C12.5052 24.4688 11.75 23.7136 11.75 22.7812C11.75 21.8489 12.5052 21.0938 13.4375 21.0938H23.5625C24.4948 21.0938 25.25 21.8489 25.25 22.7812C25.25 23.7136 24.4948 24.4688 23.5625 24.4688Z" fill="#6FA4D8"/>
</g>
<g clip-path="url(#clip4_2645_903)">
<path d="M23.5625 21.0938H18.5C19.4323 21.0938 20.1875 21.8489 20.1875 22.7812C20.1875 23.7136 19.4323 24.4688 18.5 24.4688H23.5625C24.4948 24.4688 25.25 23.7136 25.25 22.7812C25.25 21.8489 24.4948 21.0938 23.5625 21.0938Z" fill="#5C76B2"/>
</g>
<g clip-path="url(#clip5_2645_903)">
<path d="M32 49.7811H5L11.3281 41.3436L11.329 41.3427C13.1211 38.9516 16.7079 38.9507 18.5008 41.3411L18.5017 41.3419C20.2947 43.7314 23.8781 43.7322 25.6719 41.3436L32 49.7811Z" fill="#F68820"/>
</g>
<g clip-path="url(#clip6_2645_903)">
<path d="M25.6719 41.3436L25.671 41.3427C23.8789 38.9516 20.2921 38.9507 18.4992 41.3411L18.4983 41.3419C16.7053 43.7314 13.1219 43.7322 11.3281 41.3436L5 49.7811H32L25.6719 41.3436Z" fill="#FBBE18"/>
</g>
<g clip-path="url(#clip7_2645_903)">
<path d="M25.6725 41.344L25.6716 41.3431C24.4819 39.7552 22.5025 39.2279 20.7812 39.7485L24.1259 49.7815H32.0006L25.6725 41.344Z" fill="#F68820"/>
</g>
<g clip-path="url(#clip8_2645_903)">
<path d="M15.5469 46.8281C16.2459 46.8281 16.8125 46.2615 16.8125 45.5625C16.8125 44.8635 16.2459 44.2969 15.5469 44.2969C14.8479 44.2969 14.2812 44.8635 14.2812 45.5625C14.2812 46.2615 14.8479 46.8281 15.5469 46.8281Z" fill="#F68820"/>
</g>
<g clip-path="url(#clip9_2645_903)">
<path d="M12.5937 48.5156C13.0597 48.5156 13.4375 48.1379 13.4375 47.6719C13.4375 47.2059 13.0597 46.8281 12.5937 46.8281C12.1278 46.8281 11.75 47.2059 11.75 47.6719C11.75 48.1379 12.1278 48.5156 12.5937 48.5156Z" fill="#F68820"/>
</g>
<g clip-path="url(#clip10_2645_903)">
<path d="M14.2812 16.0312C16.6112 16.0312 18.5 14.1425 18.5 11.8125C18.5 9.48255 16.6112 7.59375 14.2812 7.59375C11.9513 7.59375 10.0625 9.48255 10.0625 11.8125C10.0625 14.1425 11.9513 16.0312 14.2812 16.0312Z" fill="#F68820"/>
</g>
<g clip-path="url(#clip11_2645_903)">
<path d="M13.0156 11.8125C13.7146 11.8125 14.2812 11.2459 14.2812 10.5469C14.2812 9.84789 13.7146 9.28125 13.0156 9.28125C12.3166 9.28125 11.75 9.84789 11.75 10.5469C11.75 11.2459 12.3166 11.8125 13.0156 11.8125Z" fill="#FBBE18"/>
</g>
<g clip-path="url(#clip12_2645_903)">
<path d="M22.7187 19.4062C24.1167 19.4062 25.25 18.273 25.25 16.875C25.25 15.477 24.1167 14.3438 22.7187 14.3438C21.3208 14.3438 20.1875 15.477 20.1875 16.875C20.1875 18.273 21.3208 19.4062 22.7187 19.4062Z" fill="#F68820"/>
</g>
<g clip-path="url(#clip13_2645_903)">
<path d="M21.875 16.875C22.341 16.875 22.7188 16.4972 22.7188 16.0312C22.7188 15.5653 22.341 15.1875 21.875 15.1875C21.409 15.1875 21.0312 15.5653 21.0312 16.0312C21.0312 16.4972 21.409 16.875 21.875 16.875Z" fill="#FBBE18"/>
</g>
<g clip-path="url(#clip14_2645_903)">
<path d="M26.3047 1.89844C26.3047 2.48063 25.25 4.21875 25.25 4.21875C25.25 4.21875 24.1953 2.48063 24.1953 1.89844C24.1953 1.31625 24.6678 0.84375 25.25 0.84375C25.8322 0.84375 26.3047 1.31625 26.3047 1.89844Z" fill="#F68820"/>
</g>
<g clip-path="url(#clip15_2645_903)">
<path d="M22.3063 2.98899C22.8108 3.28093 23.7887 5.06293 23.7887 5.06293C23.7887 5.06293 21.7561 5.10765 21.2516 4.81655C20.7479 4.52462 20.5749 3.87999 20.866 3.37543C21.1571 2.87087 21.8025 2.6979 22.3063 2.98899Z" fill="#F68820"/>
</g>
<g clip-path="url(#clip16_2645_903)">
<path d="M21.2518 6.99689C21.7564 6.7058 23.789 6.75052 23.789 6.75052C23.789 6.75052 22.8111 8.53252 22.3065 8.82446C21.8019 9.11555 21.1573 8.94258 20.8654 8.43802C20.5751 7.93346 20.7481 7.28883 21.2518 6.99689Z" fill="#F68820"/>
</g>
<g clip-path="url(#clip17_2645_903)">
<path d="M24.1953 9.91406C24.1953 9.33187 25.25 7.59375 25.25 7.59375C25.25 7.59375 26.3047 9.33187 26.3047 9.91406C26.3047 10.4962 25.8322 10.9688 25.25 10.9688C24.6678 10.9688 24.1953 10.4962 24.1953 9.91406Z" fill="#F68820"/>
</g>
<g clip-path="url(#clip18_2645_903)">
<path d="M28.1934 8.82446C27.6888 8.53252 26.7109 6.75052 26.7109 6.75052C26.7109 6.75052 28.7435 6.7058 29.2481 6.99689C29.7527 7.28799 29.9256 7.93346 29.6345 8.43802C29.3426 8.94258 28.6971 9.11555 28.1934 8.82446Z" fill="#F68820"/>
</g>
<g clip-path="url(#clip19_2645_903)">
<path d="M29.2481 4.81693C28.7435 5.10802 26.7109 5.0633 26.7109 5.0633C26.7109 5.0633 27.6888 3.2813 28.1934 2.98937C28.698 2.69743 29.3426 2.87124 29.6337 3.3758C29.9248 3.88037 29.7518 4.52499 29.2481 4.81693Z" fill="#F68820"/>
</g>
</g>
<defs>
<clipPath id="clip0_2645_903">
<rect width="35.4464" height="52.3125" fill="white" transform="translate(0.777344 0.84375)"/>
</clipPath>
<clipPath id="clip1_2645_903">
<rect width="35.4464" height="28.6875" fill="white" transform="translate(0.777344 24.4688)"/>
</clipPath>
<clipPath id="clip2_2645_903">
<rect width="22.7857" height="28.6875" fill="white" transform="translate(13.4375 24.4688)"/>
</clipPath>
<clipPath id="clip3_2645_903">
<rect width="13.5" height="3.375" fill="white" transform="translate(11.75 21.0938)"/>
</clipPath>
<clipPath id="clip4_2645_903">
<rect width="6.75" height="3.375" fill="white" transform="translate(18.5 21.0938)"/>
</clipPath>
<clipPath id="clip5_2645_903">
<rect width="27" height="10.2323" fill="white" transform="translate(5 39.5488)"/>
</clipPath>
<clipPath id="clip6_2645_903">
<rect width="27" height="10.2323" fill="white" transform="translate(5 39.5488)"/>
</clipPath>
<clipPath id="clip7_2645_903">
<rect width="11.2193" height="10.2268" fill="white" transform="translate(20.7812 39.5547)"/>
</clipPath>
<clipPath id="clip8_2645_903">
<rect width="2.53125" height="2.53125" fill="white" transform="translate(14.2812 44.2969)"/>
</clipPath>
<clipPath id="clip9_2645_903">
<rect width="1.6875" height="1.6875" fill="white" transform="translate(11.75 46.8281)"/>
</clipPath>
<clipPath id="clip10_2645_903">
<rect width="8.4375" height="8.4375" fill="white" transform="translate(10.0625 7.59375)"/>
</clipPath>
<clipPath id="clip11_2645_903">
<rect width="2.53125" height="2.53125" fill="white" transform="translate(11.75 9.28125)"/>
</clipPath>
<clipPath id="clip12_2645_903">
<rect width="5.0625" height="5.0625" fill="white" transform="translate(20.1875 14.3438)"/>
</clipPath>
<clipPath id="clip13_2645_903">
<rect width="1.6875" height="1.6875" fill="white" transform="translate(21.0312 15.1875)"/>
</clipPath>
<clipPath id="clip14_2645_903">
<rect width="2.10938" height="3.375" fill="white" transform="translate(24.1953 0.84375)"/>
</clipPath>
<clipPath id="clip15_2645_903">
<rect width="3.06411" height="2.21774" fill="white" transform="translate(20.7246 2.84766)"/>
</clipPath>
<clipPath id="clip16_2645_903">
<rect width="3.06436" height="2.21774" fill="white" transform="translate(20.7246 6.74805)"/>
</clipPath>
<clipPath id="clip17_2645_903">
<rect width="2.10938" height="3.375" fill="white" transform="translate(24.1953 7.59375)"/>
</clipPath>
<clipPath id="clip18_2645_903">
<rect width="3.06493" height="2.21774" fill="white" transform="translate(26.7109 6.74805)"/>
</clipPath>
<clipPath id="clip19_2645_903">
<rect width="3.06411" height="2.21812" fill="white" transform="translate(26.7109 2.84766)"/>
</clipPath>
</defs>
</svg>
