<svg width="80" height="66" viewBox="0 0 80 66" fill="none" xmlns="http://www.w3.org/2000/svg">
<path d="M1.41406 55.7779C1.92951 42.8917 4.50675 42.8917 9.14577 55.7779C13.7848 68.6641 16.362 68.6641 16.8775 55.7779C17.3929 42.8917 19.9702 42.8917 24.6092 55.7779C29.2482 68.6641 31.8255 68.6641 32.3409 55.7779C32.8564 42.8917 35.4336 42.8917 40.0726 55.7779C44.7116 68.6641 47.2889 68.6641 47.8043 55.7779C48.3198 42.8917 50.897 42.8917 55.536 55.7779C60.1751 68.6641 62.7523 68.6641 63.2678 55.7779C63.7832 42.8917 66.3604 42.8917 70.9995 55.7779C75.6385 68.6641 78.2157 68.6641 78.7312 55.7779" stroke="#FE6610" stroke-width="0.931532"/>
<path d="M1.41406 40.8951C1.92951 28.0089 4.50675 28.0089 9.14577 40.8951C13.7848 53.7813 16.362 53.7813 16.8775 40.8951C17.3929 28.0089 19.9702 28.0089 24.6092 40.8951C29.2482 53.7813 31.8255 53.7813 32.3409 40.8951C32.8564 28.0089 35.4336 28.0089 40.0726 40.8951C44.7116 53.7813 47.2889 53.7813 47.8043 40.8951C48.3198 28.0089 50.897 28.0089 55.536 40.8951C60.1751 53.7813 62.7523 53.7813 63.2678 40.8951C63.7832 28.0089 66.3604 28.0089 70.9995 40.8951C75.6385 53.7813 78.2157 53.7813 78.7312 40.8951" stroke="#FE6610" stroke-width="0.931532"/>
<path d="M1.41406 24.8502C1.92951 11.964 4.50675 11.964 9.14577 24.8502C13.7848 37.7364 16.362 37.7364 16.8775 24.8502C17.3929 11.964 19.9702 11.964 24.6092 24.8502C29.2482 37.7364 31.8255 37.7364 32.3409 24.8502C32.8564 11.964 35.4336 11.964 40.0726 24.8502C44.7116 37.7364 47.2889 37.7364 47.8043 24.8502C48.3198 11.964 50.897 11.964 55.536 24.8502C60.1751 37.7364 62.7523 37.7364 63.2678 24.8502C63.7832 11.964 66.3604 11.964 70.9995 24.8502C75.6385 37.7364 78.2157 37.7364 78.7312 24.8502" stroke="#FE6610" stroke-width="0.931532"/>
<path d="M1.41406 10.3541C1.92951 -2.53209 4.50675 -2.53209 9.14577 10.3541C13.7848 23.2403 16.362 23.2403 16.8775 10.3541C17.3929 -2.53209 19.9702 -2.53209 24.6092 10.3541C29.2482 23.2403 31.8255 23.2403 32.3409 10.3541C32.8564 -2.53209 35.4336 -2.53209 40.0726 10.3541C44.7116 23.2403 47.2889 23.2403 47.8043 10.3541C48.3198 -2.53209 50.897 -2.53209 55.536 10.3541C60.1751 23.2403 62.7523 23.2403 63.2678 10.3541C63.7832 -2.53209 66.3604 -2.53209 70.9995 10.3541C75.6385 23.2403 78.2157 23.2403 78.7312 10.3541" stroke="#FE6610" stroke-width="0.931532"/>
</svg>
