<svg width="51" height="54" viewBox="0 0 51 54" fill="none" xmlns="http://www.w3.org/2000/svg">
<g clip-path="url(#clip0_2645_857)">
<g clip-path="url(#clip1_2645_857)">
<path d="M28.9023 18.3398C30.7663 18.3398 32.2773 16.8288 32.2773 14.9648C32.2773 13.1009 30.7663 11.5898 28.9023 11.5898C27.0384 11.5898 25.5273 13.1009 25.5273 14.9648C25.5273 16.8288 27.0384 18.3398 28.9023 18.3398Z" fill="#F68820"/>
</g>
<path d="M47.1274 49.3898L32.2774 29.5896V15.3867C32.2774 14.4552 31.5214 13.6992 30.5899 13.6992C29.6584 13.6992 28.9024 14.4552 28.9024 15.3867V29.5896L14.0524 49.3898C13.493 50.1357 13.6448 51.1938 14.3899 51.7523C14.6936 51.981 15.0488 52.0898 15.4015 52.0898C15.9145 52.0898 16.4208 51.857 16.7532 51.4148L28.9032 35.2148V50.4023C28.9032 51.3338 29.6592 52.0898 30.5907 52.0898C31.5222 52.0898 32.2782 51.3338 32.2782 50.4023V35.2148L44.4282 51.4148C44.7598 51.8561 45.2669 52.0898 45.7799 52.0898C46.1318 52.0898 46.4878 51.9801 46.7916 51.7523C47.5349 51.1938 47.6859 50.1357 47.1274 49.3898Z" fill="#55525B"/>
<g clip-path="url(#clip2_2645_857)">
<path d="M25.525 40.2774C24.8205 40.2774 24.11 40.0572 23.5025 39.6024C22.0108 38.4836 21.7096 36.3683 22.8275 34.8766L27.89 28.1266C29.0097 26.6357 31.1241 26.3353 32.615 27.4516C34.1068 28.5704 34.408 30.6857 33.29 32.1774L28.2275 38.9274C27.5644 39.8117 26.551 40.2774 25.525 40.2774Z" fill="#5C76B2"/>
</g>
<g clip-path="url(#clip3_2645_857)">
<path d="M35.6548 40.2783C34.6288 40.2783 33.6155 39.8125 32.9523 38.9283L27.8898 32.1783C26.7718 30.6865 27.0739 28.5721 28.5648 27.4524C30.0549 26.3353 32.1701 26.6348 33.2898 28.1274L38.3523 34.8774C39.4703 36.3692 39.1682 38.4836 37.6773 39.6033C37.0698 40.0589 36.3593 40.2783 35.6548 40.2783Z" fill="#5C76B2"/>
</g>
<g clip-path="url(#clip4_2645_857)">
<g clip-path="url(#clip5_2645_857)">
<path d="M46.3481 10.1211L43.0246 9.53469C40.2714 9.04953 37.6457 10.8881 37.1597 13.6412C36.6745 16.3944 38.5131 19.0201 41.2662 19.5061L44.5898 20.0925C47.3429 20.5777 49.9687 18.7392 50.4547 15.986C50.9398 13.232 49.1013 10.6062 46.3481 10.1211Z" fill="#F68820"/>
</g>
<g clip-path="url(#clip6_2645_857)">
<path d="M42.1445 19.582C44.9405 19.582 47.207 17.3155 47.207 14.5195C47.207 11.7236 44.9405 9.45703 42.1445 9.45703C39.3486 9.45703 37.082 11.7236 37.082 14.5195C37.082 17.3155 39.3486 19.582 42.1445 19.582Z" fill="#FBBE18"/>
</g>
<g clip-path="url(#clip7_2645_857)">
<path d="M41.5586 17.8447L29.9258 15.7936L31.0977 9.14648L42.7305 11.1976C44.5665 11.5216 45.7917 13.2716 45.4685 15.1076C45.1445 16.9419 43.3946 18.1679 41.5586 17.8447Z" fill="#6FA4D8"/>
</g>
<g clip-path="url(#clip8_2645_857)">
<path d="M29.9258 15.7923L41.5586 17.8434C43.3946 18.1674 45.1445 16.9415 45.4685 15.1055L30.5122 12.4688L29.9258 15.7923Z" fill="#5C76B2"/>
</g>
<g clip-path="url(#clip9_2645_857)">
<path d="M26.3086 16.8683L14.6758 14.8171L16.4342 4.8457L28.0669 6.89686C30.8201 7.38202 32.6586 10.0078 32.1735 12.7618C31.6883 15.5158 29.0626 17.3543 26.3086 16.8683Z" fill="#6FA4D8"/>
</g>
<g clip-path="url(#clip10_2645_857)">
<path d="M14.6758 14.8177L26.3086 16.8689C29.0617 17.3541 31.6875 15.5155 32.1735 12.7624L15.555 9.83203L14.6758 14.8177Z" fill="#5C76B2"/>
</g>
<g clip-path="url(#clip11_2645_857)">
<path d="M13.6967 0.936688L10.3732 0.350282C5.78402 -0.458874 1.40833 2.60563 0.598329 7.19478C-0.210827 11.7839 2.85367 16.1596 7.44283 16.9696L10.7664 17.556C15.3555 18.3652 19.732 15.3007 20.5412 10.7115C21.3504 6.12153 18.2859 1.74584 13.6967 0.936688Z" fill="#F68820"/>
</g>
<g clip-path="url(#clip12_2645_857)">
<path d="M8.9082 17.0977C13.5681 17.0977 17.3457 13.3201 17.3457 8.66016C17.3457 4.00025 13.5681 0.222656 8.9082 0.222656C4.2483 0.222656 0.470703 4.00025 0.470703 8.66016C0.470703 13.3201 4.2483 17.0977 8.9082 17.0977Z" fill="#FBBE18"/>
</g>
<g clip-path="url(#clip13_2645_857)">
<path d="M8.9082 15.4102C12.6361 15.4102 15.6582 12.3881 15.6582 8.66015C15.6582 4.93223 12.6361 1.91016 8.9082 1.91016C5.18028 1.91016 2.1582 4.93223 2.1582 8.66015C2.1582 12.3881 5.18028 15.4102 8.9082 15.4102Z" fill="#55525B"/>
</g>
<g clip-path="url(#clip14_2645_857)">
<path d="M8.06298 1.96094C5.85911 2.23853 3.91848 3.59697 2.9043 5.57303C3.2207 6.82178 4.23489 7.83428 5.58573 8.07306C7.42173 8.39706 9.17167 7.1711 9.49567 5.33509C9.73276 3.98425 9.12864 2.68488 8.06298 1.96094Z" fill="#B3B4B6"/>
</g>
</g>
<g clip-path="url(#clip15_2645_857)">
<path d="M32.2773 18.3398C34.1413 18.3398 35.6523 16.8288 35.6523 14.9648C35.6523 13.1009 34.1413 11.5898 32.2773 11.5898C30.4134 11.5898 28.9023 13.1009 28.9023 14.9648C28.9023 16.8288 30.4134 18.3398 32.2773 18.3398Z" fill="#FBBE18"/>
</g>
<g clip-path="url(#clip16_2645_857)">
<path d="M32.2773 16.6523C33.2093 16.6523 33.9648 15.8968 33.9648 14.9648C33.9648 14.0329 33.2093 13.2773 32.2773 13.2773C31.3454 13.2773 30.5898 14.0329 30.5898 14.9648C30.5898 15.8968 31.3454 16.6523 32.2773 16.6523Z" fill="#55525B"/>
</g>
<g clip-path="url(#clip17_2645_857)">
<path d="M15.4023 53.7773C17.2663 53.7773 18.7773 52.2663 18.7773 50.4023C18.7773 48.5384 17.2663 47.0273 15.4023 47.0273C13.5384 47.0273 12.0273 48.5384 12.0273 50.4023C12.0273 52.2663 13.5384 53.7773 15.4023 53.7773Z" fill="#F68820"/>
</g>
<g clip-path="url(#clip18_2645_857)">
<path d="M45.7773 53.7773C47.6413 53.7773 49.1523 52.2663 49.1523 50.4023C49.1523 48.5384 47.6413 47.0273 45.7773 47.0273C43.9134 47.0273 42.4023 48.5384 42.4023 50.4023C42.4023 52.2663 43.9134 53.7773 45.7773 53.7773Z" fill="#F68820"/>
</g>
<g clip-path="url(#clip19_2645_857)">
<path d="M30.5898 53.7773C32.4538 53.7773 33.9648 52.2663 33.9648 50.4023C33.9648 48.5384 32.4538 47.0273 30.5898 47.0273C28.7259 47.0273 27.2148 48.5384 27.2148 50.4023C27.2148 52.2663 28.7259 53.7773 30.5898 53.7773Z" fill="#F68820"/>
</g>
<g clip-path="url(#clip20_2645_857)">
<path d="M30.5898 40.2773C28.726 40.2773 27.2148 38.7662 27.2148 36.9023V30.1523C27.2148 28.2885 28.726 26.7773 30.5898 26.7773C32.4537 26.7773 33.9648 28.2885 33.9648 30.1523V36.9023C33.9648 38.7662 32.4537 40.2773 30.5898 40.2773Z" fill="#F68820"/>
</g>
<g clip-path="url(#clip21_2645_857)">
<path d="M30.5898 40.2773C28.726 40.2773 27.2148 38.7662 27.2148 36.9023V30.1523C27.2148 28.2885 28.726 26.7773 30.5898 26.7773C32.4537 26.7773 33.9648 28.2885 33.9648 30.1523V36.9023C33.9648 38.7662 32.4537 40.2773 30.5898 40.2773Z" fill="#6FA4D8"/>
</g>
</g>
<defs>
<clipPath id="clip0_2645_857">
<rect width="50.0636" height="53.5567" fill="white" transform="translate(0.46875 0.220703)"/>
</clipPath>
<clipPath id="clip1_2645_857">
<rect width="6.75" height="6.75" fill="white" transform="translate(25.5273 11.5898)"/>
</clipPath>
<clipPath id="clip2_2645_857">
<rect width="11.8129" height="13.5001" fill="white" transform="translate(22.1523 26.7773)"/>
</clipPath>
<clipPath id="clip3_2645_857">
<rect width="11.8124" height="13.5009" fill="white" transform="translate(27.2148 26.7773)"/>
</clipPath>
<clipPath id="clip4_2645_857">
<rect width="50.0636" height="19.9493" fill="white" transform="translate(0.46875 0.220703)"/>
</clipPath>
<clipPath id="clip5_2645_857">
<rect width="13.4503" height="10.7132" fill="white" transform="translate(37.082 9.45703)"/>
</clipPath>
<clipPath id="clip6_2645_857">
<rect width="10.125" height="10.125" fill="white" transform="translate(37.082 9.45703)"/>
</clipPath>
<clipPath id="clip7_2645_857">
<rect width="15.5944" height="8.7499" fill="white" transform="translate(29.9258 9.14648)"/>
</clipPath>
<clipPath id="clip8_2645_857">
<rect width="15.5427" height="5.42661" fill="white" transform="translate(29.9258 12.4688)"/>
</clipPath>
<clipPath id="clip9_2645_857">
<rect width="17.5753" height="12.1005" fill="white" transform="translate(14.6758 4.8457)"/>
</clipPath>
<clipPath id="clip10_2645_857">
<rect width="17.4977" height="7.11453" fill="white" transform="translate(14.6758 9.83203)"/>
</clipPath>
<clipPath id="clip11_2645_857">
<rect width="20.202" height="17.4649" fill="white" transform="translate(0.46875 0.220703)"/>
</clipPath>
<clipPath id="clip12_2645_857">
<rect width="16.875" height="16.875" fill="white" transform="translate(0.470703 0.222656)"/>
</clipPath>
<clipPath id="clip13_2645_857">
<rect width="13.5" height="13.5" fill="white" transform="translate(2.1582 1.91016)"/>
</clipPath>
<clipPath id="clip14_2645_857">
<rect width="6.64261" height="6.16405" fill="white" transform="translate(2.9043 1.96094)"/>
</clipPath>
<clipPath id="clip15_2645_857">
<rect width="6.75" height="6.75" fill="white" transform="translate(28.9023 11.5898)"/>
</clipPath>
<clipPath id="clip16_2645_857">
<rect width="3.375" height="3.37499" fill="white" transform="translate(30.5898 13.2773)"/>
</clipPath>
<clipPath id="clip17_2645_857">
<rect width="6.75" height="6.75" fill="white" transform="translate(12.0273 47.0273)"/>
</clipPath>
<clipPath id="clip18_2645_857">
<rect width="6.75" height="6.75" fill="white" transform="translate(42.4023 47.0273)"/>
</clipPath>
<clipPath id="clip19_2645_857">
<rect width="6.75" height="6.75" fill="white" transform="translate(27.2148 47.0273)"/>
</clipPath>
<clipPath id="clip20_2645_857">
<rect width="6.75" height="13.5" fill="white" transform="translate(27.2148 26.7773)"/>
</clipPath>
<clipPath id="clip21_2645_857">
<rect width="6.75" height="13.5" fill="white" transform="translate(27.2148 26.7773)"/>
</clipPath>
</defs>
</svg>
